<?xml version="1.0" encoding="UTF-8"?>
<svg width="24px" height="18px" viewBox="0 0 24 18" version="1.1" xmlns="http://www.w3.org/2000/svg" xmlns:xlink="http://www.w3.org/1999/xlink">
    <title>图标/可用资金/可见</title>
    <g id="图标/可用资金/可见" stroke="none" stroke-width="1" fill="none" fill-rule="evenodd">
        <g id="编组" transform="translate(2.000000, 3.000000)" fill="#FFFFFF">
            <path d="M10.2912,2.2041 C12.3182,2.2041 13.9672,3.8541 13.9672,5.8801 C13.9672,7.9071 12.3182,9.5561 10.2912,9.5561 C8.2642,9.5561 6.6152,7.9071 6.6152,5.8801 C6.6152,3.8531 8.2642,2.2041 10.2912,2.2041 Z M10.2912,3.6761 C9.0752,3.6761 8.0872,4.6651 8.0872,5.8801 C8.0872,7.0961 9.0752,8.0851 10.2912,8.0851 C11.5072,8.0851 12.4952,7.0961 12.4952,5.8801 C12.4952,4.6651 11.5072,3.6761 10.2912,3.6761 Z" id="形状结合"></path>
            <path d="M10.291,0 C12.018,0 13.628,0.288 15.076,0.855 C16.243,1.312 17.306,1.95 18.236,2.751 C19.831,4.125 20.487,5.513 20.514,5.571 C20.559,5.668 20.582,5.774 20.582,5.881 L20.582,5.903 C20.582,6.01 20.559,6.116 20.514,6.213 L20.4964624,6.24938234 C20.3805207,6.48445562 19.7083077,7.76469231 18.236,9.033 C17.307,9.834 16.243,10.472 15.076,10.929 C13.628,11.496 12.018,11.784 10.291,11.784 C8.564,11.784 6.955,11.496 5.507,10.929 C4.339,10.472 3.276,9.834 2.346,9.033 C0.873692308,7.76469231 0.202331361,6.48445562 0.0865207101,6.24938234 L0.069,6.213 L0.069,6.213 C0.024,6.116 0,6.01 0,5.903 L0,5.881 C0,5.774 0.024,5.668 0.069,5.571 C0.096,5.513 0.751,4.125 2.346,2.751 C3.276,1.95 4.339,1.312 5.507,0.855 C6.955,0.288 8.564,0 10.291,0 Z M10.291,1.47 C7.528,1.47 5.196,2.26 3.359,3.819 C2.397,4.636 1.826,5.463 1.568,5.892 C1.826,6.321 2.397,7.148 3.359,7.965 C5.196,9.524 7.528,10.314 10.291,10.314 C13.054,10.314 15.386,9.524 17.224,7.965 C18.186,7.148 18.756,6.321 19.014,5.892 C18.756,5.463 18.186,4.636 17.224,3.819 C15.386,2.26 13.054,1.47 10.291,1.47 Z" id="形状结合"></path>
        </g>
    </g>
</svg>