<?xml version="1.0" encoding="UTF-8"?>
<svg width="20px" height="22px" viewBox="0 0 20 22" version="1.1" xmlns="http://www.w3.org/2000/svg" xmlns:xlink="http://www.w3.org/1999/xlink">
    <title>图标/个人中心</title>
    <g id="页面-1" stroke="none" stroke-width="1" fill="none" fill-rule="evenodd">
        <g id="订单购销/持单明细" transform="translate(-1677.000000, -10.000000)" fill="#CCCFD4" fill-rule="nonzero">
            <g id="编组" transform="translate(1674.000000, 8.000000)">
                <g transform="translate(3.500000, 2.500000)">
                    <path d="M9.49449979,0 C13.3329171,0 16.4445692,3.14286587 16.4445692,7.0197874 C16.4445692,10.8967089 13.3329171,14.0395748 9.49449979,14.0395748 C5.65608245,14.0395748 2.54443038,10.8967089 2.54443038,7.0197874 C2.54443038,3.14286587 5.65608245,0 9.49449979,0 Z M9.49449979,2.00565354 C6.75277312,2.00565354 4.5301645,4.25055774 4.5301645,7.0197874 C4.5301645,9.78901706 6.75277312,12.0339213 9.49449979,12.0339213 C12.2362265,12.0339213 14.4588351,9.78901706 14.4588351,7.0197874 C14.4588351,4.25055774 12.2362265,2.00565354 9.49449979,2.00565354 Z" id="椭圆形"></path>
                    <path d="M9.57097322,16.0400664 C12.0276686,16.0400664 15.0176383,17.0387116 18.5709026,19.0118389 L19,19.2532901 L18.0240664,21 C14.5528276,19.02142 11.7238736,18.04572 9.57097322,18.04572 C6.60675457,18.04572 4.46229861,18.7773705 1.45654022,20.7247946 L1.09160738,20.9643522 L0,19.2889379 C3.50096301,16.961911 6.05922936,16.0400664 9.57097322,16.0400664 Z" id="路径"></path>
                </g>
            </g>
        </g>
    </g>
</svg>